<mxfile host="app.diagrams.net" modified="2024-02-11T05:14:52.719Z" agent="Mozilla/5.0 (Windows NT 10.0; Win64; x64) AppleWebKit/537.36 (KHTML, like Gecko) Chrome/121.0.0.0 Safari/537.36 Edg/121.0.0.0" etag="uedtxjVmvIsgONmZIdtz" version="23.1.2" type="github">
  <diagram id="C5RBs43oDa-KdzZeNtuy" name="Page-1">
    <mxGraphModel dx="1339" dy="751" grid="1" gridSize="10" guides="1" tooltips="1" connect="1" arrows="1" fold="1" page="1" pageScale="1" pageWidth="827" pageHeight="1169" math="0" shadow="0">
      <root>
        <mxCell id="WIyWlLk6GJQsqaUBKTNV-0" />
        <mxCell id="WIyWlLk6GJQsqaUBKTNV-1" parent="WIyWlLk6GJQsqaUBKTNV-0" />
        <mxCell id="Gw4JscOzNnIxY5JQZSNE-31" value="" style="edgeStyle=orthogonalEdgeStyle;rounded=0;orthogonalLoop=1;jettySize=auto;html=1;" edge="1" parent="WIyWlLk6GJQsqaUBKTNV-1" source="Gw4JscOzNnIxY5JQZSNE-6" target="Gw4JscOzNnIxY5JQZSNE-30">
          <mxGeometry relative="1" as="geometry" />
        </mxCell>
        <mxCell id="Gw4JscOzNnIxY5JQZSNE-47" style="edgeStyle=orthogonalEdgeStyle;rounded=0;orthogonalLoop=1;jettySize=auto;html=1;exitX=0.5;exitY=1;exitDx=0;exitDy=0;entryX=0.5;entryY=0;entryDx=0;entryDy=0;" edge="1" parent="WIyWlLk6GJQsqaUBKTNV-1" source="Gw4JscOzNnIxY5JQZSNE-6" target="Gw4JscOzNnIxY5JQZSNE-19">
          <mxGeometry relative="1" as="geometry" />
        </mxCell>
        <mxCell id="Gw4JscOzNnIxY5JQZSNE-6" value="Dashboard BVVIP&lt;br&gt;(NextJs)" style="rounded=1;whiteSpace=wrap;html=1;fontSize=12;glass=0;strokeWidth=1;shadow=0;verticalAlign=middle;" vertex="1" parent="WIyWlLk6GJQsqaUBKTNV-1">
          <mxGeometry x="270" y="190" width="120" height="80" as="geometry" />
        </mxCell>
        <mxCell id="Gw4JscOzNnIxY5JQZSNE-17" value="&lt;font style=&quot;font-size: 12px;&quot;&gt;Firebase Cloud&lt;br&gt;(Auth &amp;amp; Realtime Database)&lt;/font&gt;" style="ellipse;shape=cloud;whiteSpace=wrap;html=1;" vertex="1" parent="WIyWlLk6GJQsqaUBKTNV-1">
          <mxGeometry x="370" y="20" width="140" height="120" as="geometry" />
        </mxCell>
        <mxCell id="Gw4JscOzNnIxY5JQZSNE-18" value="Marzban - API" style="ellipse;shape=cloud;whiteSpace=wrap;html=1;" vertex="1" parent="WIyWlLk6GJQsqaUBKTNV-1">
          <mxGeometry x="580" y="40" width="140" height="120" as="geometry" />
        </mxCell>
        <mxCell id="Gw4JscOzNnIxY5JQZSNE-46" style="edgeStyle=orthogonalEdgeStyle;rounded=0;orthogonalLoop=1;jettySize=auto;html=1;exitX=1;exitY=0.5;exitDx=0;exitDy=0;entryX=0;entryY=0.5;entryDx=0;entryDy=0;" edge="1" parent="WIyWlLk6GJQsqaUBKTNV-1" source="Gw4JscOzNnIxY5JQZSNE-19" target="Gw4JscOzNnIxY5JQZSNE-21">
          <mxGeometry relative="1" as="geometry" />
        </mxCell>
        <mxCell id="Gw4JscOzNnIxY5JQZSNE-48" style="edgeStyle=orthogonalEdgeStyle;rounded=0;orthogonalLoop=1;jettySize=auto;html=1;exitX=0;exitY=0.5;exitDx=0;exitDy=0;entryX=1;entryY=0.5;entryDx=0;entryDy=0;" edge="1" parent="WIyWlLk6GJQsqaUBKTNV-1" source="Gw4JscOzNnIxY5JQZSNE-19" target="Gw4JscOzNnIxY5JQZSNE-35">
          <mxGeometry relative="1" as="geometry" />
        </mxCell>
        <mxCell id="Gw4JscOzNnIxY5JQZSNE-19" value="CronJob" style="rounded=1;whiteSpace=wrap;html=1;fontSize=12;glass=0;strokeWidth=1;shadow=0;verticalAlign=middle;" vertex="1" parent="WIyWlLk6GJQsqaUBKTNV-1">
          <mxGeometry x="285" y="300" width="90" height="60" as="geometry" />
        </mxCell>
        <mxCell id="Gw4JscOzNnIxY5JQZSNE-21" value="syncrhonize database Firebase and Marzban" style="whiteSpace=wrap;html=1;rounded=1;glass=0;strokeWidth=1;shadow=0;arcSize=47;" vertex="1" parent="WIyWlLk6GJQsqaUBKTNV-1">
          <mxGeometry x="400" y="295" width="160" height="70" as="geometry" />
        </mxCell>
        <mxCell id="Gw4JscOzNnIxY5JQZSNE-28" value="Database" style="shape=cylinder3;whiteSpace=wrap;html=1;boundedLbl=1;backgroundOutline=1;size=15;" vertex="1" parent="WIyWlLk6GJQsqaUBKTNV-1">
          <mxGeometry x="750" y="60" width="60" height="80" as="geometry" />
        </mxCell>
        <mxCell id="Gw4JscOzNnIxY5JQZSNE-29" style="edgeStyle=orthogonalEdgeStyle;rounded=0;orthogonalLoop=1;jettySize=auto;html=1;exitX=0.875;exitY=0.5;exitDx=0;exitDy=0;exitPerimeter=0;entryX=0;entryY=0.5;entryDx=0;entryDy=0;entryPerimeter=0;" edge="1" parent="WIyWlLk6GJQsqaUBKTNV-1" source="Gw4JscOzNnIxY5JQZSNE-18" target="Gw4JscOzNnIxY5JQZSNE-28">
          <mxGeometry relative="1" as="geometry" />
        </mxCell>
        <mxCell id="Gw4JscOzNnIxY5JQZSNE-30" value="page input number whatsapp&lt;br&gt;&lt;br&gt;will put to RD FireBase" style="rounded=1;whiteSpace=wrap;html=1;fontSize=12;glass=0;strokeWidth=1;shadow=0;verticalAlign=middle;" vertex="1" parent="WIyWlLk6GJQsqaUBKTNV-1">
          <mxGeometry x="130" y="190" width="120" height="80" as="geometry" />
        </mxCell>
        <mxCell id="Gw4JscOzNnIxY5JQZSNE-32" style="edgeStyle=orthogonalEdgeStyle;rounded=0;orthogonalLoop=1;jettySize=auto;html=1;exitX=0.5;exitY=0;exitDx=0;exitDy=0;entryX=0.16;entryY=0.55;entryDx=0;entryDy=0;entryPerimeter=0;" edge="1" parent="WIyWlLk6GJQsqaUBKTNV-1" source="Gw4JscOzNnIxY5JQZSNE-30" target="Gw4JscOzNnIxY5JQZSNE-17">
          <mxGeometry relative="1" as="geometry">
            <Array as="points">
              <mxPoint x="190" y="86" />
            </Array>
          </mxGeometry>
        </mxCell>
        <mxCell id="Gw4JscOzNnIxY5JQZSNE-35" value="script Send Notification, before expired and expired" style="rounded=1;whiteSpace=wrap;html=1;arcSize=20;" vertex="1" parent="WIyWlLk6GJQsqaUBKTNV-1">
          <mxGeometry x="140" y="300" width="120" height="60" as="geometry" />
        </mxCell>
        <mxCell id="Gw4JscOzNnIxY5JQZSNE-45" style="edgeStyle=orthogonalEdgeStyle;rounded=0;orthogonalLoop=1;jettySize=auto;html=1;exitX=0.5;exitY=0;exitDx=0;exitDy=0;entryX=0.96;entryY=0.7;entryDx=0;entryDy=0;entryPerimeter=0;" edge="1" parent="WIyWlLk6GJQsqaUBKTNV-1" source="Gw4JscOzNnIxY5JQZSNE-21" target="Gw4JscOzNnIxY5JQZSNE-17">
          <mxGeometry relative="1" as="geometry">
            <Array as="points">
              <mxPoint x="480" y="190" />
              <mxPoint x="504" y="190" />
            </Array>
          </mxGeometry>
        </mxCell>
        <mxCell id="Gw4JscOzNnIxY5JQZSNE-49" style="edgeStyle=orthogonalEdgeStyle;rounded=0;orthogonalLoop=1;jettySize=auto;html=1;exitX=0;exitY=0.5;exitDx=0;exitDy=0;entryX=0.25;entryY=0.25;entryDx=0;entryDy=0;entryPerimeter=0;" edge="1" parent="WIyWlLk6GJQsqaUBKTNV-1" source="Gw4JscOzNnIxY5JQZSNE-35" target="Gw4JscOzNnIxY5JQZSNE-17">
          <mxGeometry relative="1" as="geometry">
            <Array as="points">
              <mxPoint x="120" y="330" />
              <mxPoint x="120" y="50" />
            </Array>
          </mxGeometry>
        </mxCell>
        <mxCell id="Gw4JscOzNnIxY5JQZSNE-50" style="edgeStyle=orthogonalEdgeStyle;rounded=0;orthogonalLoop=1;jettySize=auto;html=1;exitX=0.75;exitY=0;exitDx=0;exitDy=0;entryX=0.16;entryY=0.55;entryDx=0;entryDy=0;entryPerimeter=0;" edge="1" parent="WIyWlLk6GJQsqaUBKTNV-1" source="Gw4JscOzNnIxY5JQZSNE-21" target="Gw4JscOzNnIxY5JQZSNE-18">
          <mxGeometry relative="1" as="geometry">
            <Array as="points">
              <mxPoint x="520" y="228" />
              <mxPoint x="570" y="228" />
              <mxPoint x="570" y="106" />
            </Array>
          </mxGeometry>
        </mxCell>
        <mxCell id="Gw4JscOzNnIxY5JQZSNE-54" style="edgeStyle=orthogonalEdgeStyle;rounded=0;orthogonalLoop=1;jettySize=auto;html=1;exitX=0.875;exitY=0.5;exitDx=0;exitDy=0;exitPerimeter=0;" edge="1" parent="WIyWlLk6GJQsqaUBKTNV-1" source="Gw4JscOzNnIxY5JQZSNE-51" target="Gw4JscOzNnIxY5JQZSNE-53">
          <mxGeometry relative="1" as="geometry" />
        </mxCell>
        <mxCell id="Gw4JscOzNnIxY5JQZSNE-51" value="WA - API (Render free hosting)" style="ellipse;shape=cloud;whiteSpace=wrap;align=center;labelBorderColor=none;fontColor=default;labelBackgroundColor=none;html=1;fontSize=10;" vertex="1" parent="WIyWlLk6GJQsqaUBKTNV-1">
          <mxGeometry x="580" y="185" width="130" height="90" as="geometry" />
        </mxCell>
        <mxCell id="Gw4JscOzNnIxY5JQZSNE-52" style="edgeStyle=orthogonalEdgeStyle;rounded=0;orthogonalLoop=1;jettySize=auto;html=1;exitX=0.5;exitY=1;exitDx=0;exitDy=0;entryX=0.55;entryY=0.95;entryDx=0;entryDy=0;entryPerimeter=0;" edge="1" parent="WIyWlLk6GJQsqaUBKTNV-1" source="Gw4JscOzNnIxY5JQZSNE-35" target="Gw4JscOzNnIxY5JQZSNE-51">
          <mxGeometry relative="1" as="geometry" />
        </mxCell>
        <UserObject label="Client" tooltip="" id="Gw4JscOzNnIxY5JQZSNE-53">
          <mxCell style="shape=umlActor;verticalLabelPosition=bottom;verticalAlign=top;html=1;outlineConnect=0;" vertex="1" parent="WIyWlLk6GJQsqaUBKTNV-1">
            <mxGeometry x="750" y="200" width="30" height="60" as="geometry" />
          </mxCell>
        </UserObject>
      </root>
    </mxGraphModel>
  </diagram>
</mxfile>
